<svg xmlns="http://www.w3.org/2000/svg" width="164" height="32.74" viewBox="0 0 164 32.74"><defs><style>.a{fill:#fe4a4a;}.b{isolation:isolate;}.c{fill:#fff;}</style></defs><g transform="translate(-745.306 576.956)"><g transform="translate(745.306 -576.956)"><path class="a" d="M806.028-544.216H754.639a9.333,9.333,0,0,1-9.333-9.333v-14.073a9.333,9.333,0,0,1,9.333-9.333H796.7a9.333,9.333,0,0,1,9.333,9.333Z" transform="translate(-745.306 576.956)"/></g><g class="b" transform="translate(750.798 -570.75)"><g class="b" transform="translate(0 0.771)"><path class="c" d="M762.609-542.349h8.842v2.714H759.9V-558.42h2.714Z" transform="translate(-759.895 558.42)"/><g transform="translate(17.977)"><path class="c" d="M810.394-542.349h8.734v2.714H807.653V-558.42H819.1v2.714h-8.707v5.294h8.519v2.741h-8.519Z" transform="translate(-807.653 558.42)"/></g><g transform="translate(34.208)"><path class="c" d="M864.961-558.42h2.9l-7.552,18.839h-1.988l-7.552-18.839h2.956l5.59,14.055Z" transform="translate(-850.771 558.42)"/></g></g><g transform="translate(58.15 0)"><path d="M915.556-549.073h9.728v-1.183h-9.728v-8.008H925.5v-1.156H914.373v19.538h11.18v-1.156h-10Z" transform="translate(-914.373 559.814)"/><path d="M968.207-559.42h-6.718v19.538h6.718c6.615,0,9.628-5.064,9.628-9.769S974.823-559.42,968.207-559.42Zm0,18.382h-5.563v-17.226h5.563c5.821,0,8.472,4.465,8.472,8.613S974.028-541.038,968.207-541.038Z" transform="translate(-943.753 559.814)"/><path d="M1034.977-545.365c0,2.932-2.977,4.514-5.778,4.514s-5.777-1.573-5.777-4.488V-559.42h-1.183v14.055c0,3.7,3.586,5.7,6.96,5.7s6.961-1.987,6.961-5.671V-559.42h-1.183Z" transform="translate(-981.635 559.814)"/><path d="M1084.061-558.165a8.194,8.194,0,0,1,5.937,2.518,8.5,8.5,0,0,1,1.7,2.522l.1.227h1.268l-.216-.521a9.871,9.871,0,0,0-2.012-3.047,9.362,9.362,0,0,0-6.774-2.882,9.362,9.362,0,0,0-6.774,2.882,9.837,9.837,0,0,0-2.793,6.873,9.868,9.868,0,0,0,2.793,6.9,9.362,9.362,0,0,0,6.774,2.883,9.364,9.364,0,0,0,6.774-2.883,9.871,9.871,0,0,0,2.012-3.047l.216-.521H1091.8l-.1.227a8.45,8.45,0,0,1-1.7,2.494,8.206,8.206,0,0,1-5.938,2.546,8.208,8.208,0,0,1-5.939-2.548,8.579,8.579,0,0,1-2.472-6.051,8.678,8.678,0,0,1,2.474-6.053A8.193,8.193,0,0,1,1084.061-558.165Z" transform="translate(-1014.22 559.77)"/><path d="M1145.52-560.369h-.46l-.039-.1-.038.1h-.432l-7.849,19.833h1.264l2.553-6.315h9.007l2.58,6.315h1.264ZM1141-548.007l4.02-10.382,4.044,10.382Z" transform="translate(-1053.011 560.468)"/></g></g></g></svg>